<svg width="54" height="54" viewBox="0 0 54 54" fill="none" xmlns="http://www.w3.org/2000/svg">
<path fill-rule="evenodd" clip-rule="evenodd" d="M2.25 6.38551C2.25 5.2887 2.6857 4.23682 3.46126 3.46127C4.23682 2.68571 5.2887 2.25001 6.3855 2.25001H47.61C48.1535 2.24912 48.6919 2.35545 49.1943 2.56291C49.6967 2.77036 50.1533 3.07488 50.5378 3.45901C50.9224 3.84315 51.2274 4.29936 51.4354 4.80153C51.6434 5.3037 51.7503 5.84196 51.75 6.38551V47.61C51.7506 48.1537 51.644 48.6921 51.4363 49.1945C51.2286 49.6969 50.9239 50.1534 50.5395 50.5379C50.1552 50.9225 49.6989 51.2274 49.1966 51.4354C48.6943 51.6434 48.1559 51.7503 47.6122 51.75H6.3855C5.84223 51.75 5.30428 51.643 4.80239 51.435C4.3005 51.227 3.84451 50.9222 3.46046 50.5379C3.07642 50.1537 2.77185 49.6975 2.56415 49.1955C2.35645 48.6935 2.24971 48.1555 2.25 47.6123V6.38551ZM21.843 21.123H28.5457V24.489C29.5133 22.554 31.9882 20.8125 35.7075 20.8125C42.8377 20.8125 44.5275 24.6668 44.5275 31.7385V44.838H37.3118V33.3495C37.3118 29.322 36.3442 27.0495 33.8872 27.0495C30.4785 27.0495 29.061 29.4998 29.061 33.3495V44.838H21.843V21.123ZM9.468 44.5298H16.686V20.8125H9.468V44.5275V44.5298ZM17.7188 13.077C17.7324 13.695 17.6224 14.3095 17.3953 14.8845C17.1682 15.4594 16.8285 15.9832 16.3963 16.4251C15.964 16.867 15.4478 17.2181 14.878 17.4578C14.3082 17.6975 13.6963 17.8209 13.0781 17.8209C12.46 17.8209 11.848 17.6975 11.2782 17.4578C10.7084 17.2181 10.1922 16.867 9.75998 16.4251C9.32771 15.9832 8.98806 15.4594 8.76096 14.8845C8.53386 14.3095 8.42389 13.695 8.4375 13.077C8.46421 11.8639 8.96487 10.7095 9.83224 9.86105C10.6996 9.01256 11.8648 8.53745 13.0781 8.53745C14.2915 8.53745 15.4566 9.01256 16.324 9.86105C17.1914 10.7095 17.692 11.8639 17.7188 13.077Z" fill="#B5B5B5"/>
</svg>
