<svg width="55" height="55" viewBox="0 0 55 55" fill="none" xmlns="http://www.w3.org/2000/svg">
<path d="M30.5536 1.60959C32.772 0.756315 35.228 0.756315 37.4464 1.60959L48.5216 5.86879C50.3776 6.58239 51.6 8.3648 51.6 10.3488V35.2448C51.5992 35.4805 51.581 35.7158 51.5456 35.9488C51.3022 33.0899 50.2064 30.3699 48.4 28.1408V10.352C48.4001 10.0282 48.3019 9.71204 48.1185 9.44522C47.9351 9.1784 47.6751 8.97351 47.3728 8.85759L36.2976 4.59839C34.8187 4.02954 33.1813 4.02954 31.7024 4.59839L20.624 8.8544C20.3218 8.97101 20.0621 9.17662 19.8792 9.44403C19.6964 9.71144 19.599 10.0281 19.6 10.352V13.872C18.5375 13.7382 17.4625 13.7382 16.4 13.872V10.352C16.4001 9.3816 16.6944 8.43403 17.2439 7.63425C17.7935 6.83447 18.5726 6.22004 19.4784 5.87199L30.5504 1.61279L30.5536 1.60959ZM34.32 23.0848C33.8214 22.5473 33.2062 22.1313 32.5216 21.8688L21.4464 17.6096C19.228 16.7563 16.772 16.7563 14.5536 17.6096L3.47839 21.8688C2.57256 22.2168 1.7935 22.8313 1.24393 23.6311C0.69437 24.4308 0.400122 25.3784 0.399994 26.3488V41.6448C0.400122 42.6152 0.69437 43.5628 1.24393 44.3625C1.7935 45.1623 2.57256 45.7767 3.47839 46.1248L14.5504 50.384C16.7697 51.2381 19.2271 51.2381 21.4464 50.384L27.6672 47.9904C26.8095 47.2334 26.0447 46.3772 25.3888 45.44L20.2976 47.3984C18.8187 47.9672 17.1813 47.9672 15.7024 47.3984L4.62399 43.1392C4.32228 43.0228 4.06293 42.8177 3.88013 42.5509C3.69732 42.2841 3.59965 41.9682 3.59999 41.6448V26.3488C3.59965 26.0254 3.69732 25.7095 3.88013 25.4427C4.06293 25.1759 4.32228 24.9708 4.62399 24.8544L15.7024 20.5952C17.1813 20.0263 18.8187 20.0263 20.2976 20.5952L30.4224 24.4896C31.6465 23.8346 32.9595 23.3614 34.32 23.0848ZM28.2304 25.9328C27.9586 25.8914 27.6808 25.9212 27.424 26.0192L18 29.648L8.57279 26.0224C8.17645 25.8701 7.73583 25.8814 7.34786 26.0539C6.95988 26.2265 6.65633 26.5461 6.50399 26.9424C6.35165 27.3387 6.363 27.7794 6.53553 28.1673C6.70806 28.5553 7.02765 28.8589 7.42399 29.0112L16.4 32.4576V40.4256C16.4 40.8499 16.5686 41.2569 16.8686 41.557C17.1687 41.857 17.5756 42.0256 18 42.0256C18.4243 42.0256 18.8313 41.857 19.1314 41.557C19.4314 41.2569 19.6 40.8499 19.6 40.4256V32.4576L24.3872 30.6144C25.323 28.7989 26.6329 27.2023 28.2304 25.9296V25.9328ZM43.424 10.0192C43.6213 9.93755 43.8329 9.89621 44.0464 9.89761C44.2598 9.89901 44.4709 9.94312 44.6671 10.0273C44.8633 10.1116 45.0406 10.2342 45.1887 10.388C45.3367 10.5418 45.4525 10.7237 45.5291 10.923C45.6058 11.1222 45.6418 11.3348 45.6351 11.5482C45.6283 11.7616 45.5789 11.9715 45.4898 12.1655C45.4007 12.3595 45.2736 12.5337 45.1161 12.6778C44.9586 12.822 44.7739 12.9332 44.5728 13.0048L35.7216 16.4096C34.6124 16.8362 33.3844 16.8362 32.2752 16.4096L23.424 13.008C23.0281 12.8552 22.7091 12.5514 22.5371 12.1635C22.3652 11.7755 22.3544 11.3351 22.5072 10.9392C22.66 10.5433 22.9637 10.2243 23.3517 10.0523C23.7397 9.8804 24.1801 9.86963 24.576 10.0224L33.424 13.424C33.7947 13.567 34.2053 13.567 34.576 13.424L43.424 10.0192ZM46.1696 43.9072C47.8653 41.6395 48.6391 38.8136 48.3354 35.9984C48.0316 33.1831 46.6727 30.5874 44.5322 28.7337C42.3917 26.8799 39.6286 25.9058 36.7988 26.0072C33.969 26.1086 31.2826 27.2782 29.2804 29.2804C27.2782 31.2827 26.1086 33.969 26.0072 36.7988C25.9058 39.6286 26.8799 42.3917 28.7337 44.5322C30.5874 46.6727 33.1831 48.0316 35.9984 48.3354C38.8136 48.6392 41.6395 47.8653 43.9072 46.1696L52.0672 54.3296C52.3672 54.63 52.7743 54.799 53.1989 54.7993C53.6234 54.7996 54.0308 54.6312 54.3312 54.3312C54.6316 54.0312 54.8006 53.6241 54.8009 53.1995C54.8012 52.7749 54.6328 52.3676 54.3328 52.0672L46.1728 43.9072H46.1696ZM45.2 37.1936C45.2 39.3153 44.3571 41.3502 42.8568 42.8504C41.3566 44.3507 39.3217 45.1936 37.2 45.1936C35.0783 45.1936 33.0434 44.3507 31.5431 42.8504C30.0428 41.3502 29.2 39.3153 29.2 37.1936C29.2 35.0719 30.0428 33.037 31.5431 31.5367C33.0434 30.0364 35.0783 29.1936 37.2 29.1936C39.3217 29.1936 41.3566 30.0364 42.8568 31.5367C44.3571 33.037 45.2 35.0719 45.2 37.1936Z" fill="#CCCCCC"/>
</svg>
