<svg width="46" height="37" viewBox="0 0 46 37" fill="none" xmlns="http://www.w3.org/2000/svg">
<path d="M45.5 11.2376V29.5571C45.5001 31.4249 44.7855 33.222 43.5027 34.5797C42.22 35.9373 40.4663 36.7526 38.6015 36.8584L38.1875 36.8696H7.8125C5.94469 36.8698 4.14764 36.1551 2.78998 34.8724C1.43233 33.5896 0.616997 31.8359 0.51125 29.9711L0.5 29.5571V11.2376L22.217 22.6136C22.4586 22.7402 22.7273 22.8063 23 22.8063C23.2727 22.8063 23.5414 22.7402 23.783 22.6136L45.5 11.2376ZM7.8125 0.869629H38.1875C40.0001 0.869411 41.7481 1.54237 43.0926 2.75798C44.4371 3.97359 45.2822 5.64521 45.464 7.44863L23 19.2161L0.536 7.44863C0.710428 5.71683 1.49686 4.10404 2.75394 2.90017C4.01101 1.6963 5.65628 0.9803 7.394 0.880879L7.8125 0.869629H38.1875H7.8125Z" fill="#D9E7E8"/>
</svg>
