<svg width="54" height="54" viewBox="0 0 54 54" fill="none" xmlns="http://www.w3.org/2000/svg">
<path d="M27 0C19.6729 0 18.7515 0.03375 15.8726 0.162C12.9938 0.297 11.0329 0.74925 9.315 1.4175C7.51307 2.09526 5.88091 3.15841 4.53263 4.53263C3.15926 5.8816 2.09624 7.51356 1.4175 9.315C0.74925 11.0295 0.293625 12.9937 0.162 15.8625C0.03375 18.7481 0 19.6661 0 27.0034C0 34.3339 0.03375 35.2519 0.162 38.1308C0.297 41.0063 0.74925 42.9671 1.4175 44.685C2.10938 46.4603 3.03075 47.9655 4.53263 49.4674C6.03113 50.9692 7.53638 51.894 9.31163 52.5825C11.0329 53.2508 12.9904 53.7064 15.8659 53.838C18.7481 53.9662 19.6661 54 27 54C34.3339 54 35.2485 53.9662 38.1308 53.838C41.0029 53.703 42.9705 53.2508 44.6884 52.5825C46.4892 51.9044 48.1201 50.8413 49.4674 49.4674C50.9692 47.9655 51.8906 46.4603 52.5825 44.685C53.2474 42.9671 53.703 41.0063 53.838 38.1308C53.9662 35.2519 54 34.3339 54 27C54 19.6661 53.9662 18.7481 53.838 15.8659C53.703 12.9938 53.2474 11.0295 52.5825 9.315C51.9039 7.51351 50.8408 5.88153 49.4674 4.53263C48.1195 3.15791 46.4872 2.09468 44.685 1.4175C42.9637 0.74925 40.9995 0.293625 38.1274 0.162C35.2451 0.03375 34.3305 0 26.9932 0H27.0034H27ZM24.5801 4.86675H27.0034C34.2124 4.86675 35.0662 4.89038 37.9114 5.022C40.5439 5.14013 41.9749 5.58225 42.9266 5.95013C44.1855 6.4395 45.0866 7.02675 46.0316 7.97175C46.9766 8.91675 47.5605 9.8145 48.0499 11.0767C48.4211 12.0251 48.8599 13.4561 48.978 16.0886C49.1096 18.9338 49.1366 19.7876 49.1366 26.9932C49.1366 34.1989 49.1096 35.0561 48.978 37.9012C48.8599 40.5337 48.4178 41.9614 48.0499 42.9131C47.617 44.0855 46.9261 45.1455 46.0282 46.0147C45.0832 46.9598 44.1855 47.5436 42.9233 48.033C41.9783 48.4043 40.5472 48.843 37.9114 48.9645C35.0662 49.0928 34.2124 49.1231 27.0034 49.1231C19.7944 49.1231 18.9371 49.0928 16.092 48.9645C13.4595 48.843 12.0319 48.4043 11.0801 48.033C9.90731 47.6007 8.8463 46.9111 7.97512 46.0147C7.07653 45.1441 6.38457 44.0831 5.95013 42.9097C5.58225 41.9614 5.14013 40.5304 5.022 37.8979C4.89375 35.0527 4.86675 34.1989 4.86675 26.9865C4.86675 19.7775 4.89375 18.927 5.022 16.0819C5.1435 13.4494 5.58225 12.0184 5.9535 11.0666C6.44288 9.80775 7.03012 8.90662 7.97512 7.96163C8.92013 7.01662 9.81787 6.43275 11.0801 5.94338C12.0319 5.57212 13.4595 5.13338 16.092 5.01188C18.5828 4.89713 19.548 4.86338 24.5801 4.86V4.86675ZM41.4146 9.34875C40.9891 9.34875 40.5678 9.43256 40.1747 9.59538C39.7816 9.75821 39.4245 9.99686 39.1236 10.2977C38.8227 10.5986 38.5841 10.9558 38.4213 11.3489C38.2584 11.742 38.1746 12.1633 38.1746 12.5887C38.1746 13.0142 38.2584 13.4355 38.4213 13.8286C38.5841 14.2217 38.8227 14.5789 39.1236 14.8798C39.4245 15.1806 39.7816 15.4193 40.1747 15.5821C40.5678 15.7449 40.9891 15.8288 41.4146 15.8288C42.2739 15.8288 43.098 15.4874 43.7057 14.8798C44.3133 14.2722 44.6546 13.4481 44.6546 12.5887C44.6546 11.7294 44.3133 10.9053 43.7057 10.2977C43.098 9.69011 42.2739 9.34875 41.4146 9.34875ZM27.0034 13.1355C25.1642 13.1068 23.3378 13.4443 21.6303 14.1282C19.9228 14.8122 18.3685 15.829 17.0578 17.1194C15.747 18.4099 14.7061 19.9482 13.9956 21.6448C13.2851 23.3413 12.9192 25.1623 12.9192 27.0017C12.9192 28.841 13.2851 30.662 13.9956 32.3586C14.7061 34.0552 15.747 35.5935 17.0578 36.8839C18.3685 38.1744 19.9228 39.1912 21.6303 39.8751C23.3378 40.5591 25.1642 40.8966 27.0034 40.8679C30.6435 40.8111 34.1152 39.3252 36.6693 36.731C39.2234 34.1367 40.6549 30.6422 40.6549 27.0017C40.6549 23.3612 39.2234 19.8666 36.6693 17.2724C34.1152 14.6782 30.6435 13.1923 27.0034 13.1355ZM27.0034 17.9989C29.3906 17.9989 31.6801 18.9472 33.3681 20.6352C35.0562 22.3233 36.0045 24.6128 36.0045 27C36.0045 29.3872 35.0562 31.6767 33.3681 33.3648C31.6801 35.0528 29.3906 36.0011 27.0034 36.0011C24.6161 36.0011 22.3267 35.0528 20.6386 33.3648C18.9506 31.6767 18.0023 29.3872 18.0023 27C18.0023 24.6128 18.9506 22.3233 20.6386 20.6352C22.3267 18.9472 24.6161 17.9989 27.0034 17.9989Z" fill="#B5B5B5"/>
</svg>
