<svg width="62" height="62" viewBox="0 0 62 62" fill="none" xmlns="http://www.w3.org/2000/svg">
<path d="M15.5 7.75V15.5H7.75V7.75H15.5ZM3.875 3.875V19.375H19.375V3.875H3.875ZM34.875 13.5625V21.3125H27.125V13.5625H34.875ZM23.25 9.6875V25.1875H38.75V9.6875H23.25ZM15.5 31V38.75H7.75V31H15.5ZM3.875 27.125V42.625H19.375V27.125H3.875Z" fill="#CCCCCC"/>
<path d="M42.625 19.375V31H31V42.625H19.375V58.125H58.125V19.375H42.625ZM34.875 34.875H42.625V42.625H34.875V34.875ZM31 54.25H23.25V46.5H31V54.25ZM42.625 54.25H34.875V46.5H42.625V54.25ZM54.25 54.25H46.5V46.5H54.25V54.25ZM54.25 42.625H46.5V34.875H54.25V42.625ZM46.5 31V23.25H54.25V31H46.5Z" fill="#CCCCCC"/>
</svg>
