<svg width="58" height="55" viewBox="0 0 58 55" fill="none" xmlns="http://www.w3.org/2000/svg">
<path d="M26.4167 46.6667V51.8333H5.75001C2.90834 51.8333 0.583344 49.5083 0.583344 46.6667V5.33333C0.583344 2.49167 2.90834 0.166668 5.75001 0.166668H52.25C55.0917 0.166668 57.4167 2.49167 57.4167 5.33333V26.2583L56.9 25.7417C55.6083 24.45 54.0583 23.675 52.25 23.675V10.5H5.75001V46.6667H26.4167ZM53.2833 29.3583L56.6417 32.7167C57.1583 33.2333 57.1583 34.2667 56.6417 34.7833L54.0583 37.3667L48.6333 31.9417L51.2167 29.3583C51.475 29.1 51.7333 28.8417 52.25 28.8417C52.7667 28.8417 53.025 29.1 53.2833 29.3583ZM52.5083 38.6583L37.0083 54.4167H31.5833V48.9917L47.3417 33.2333L52.5083 38.6583Z" fill="#CCCCCC"/>
</svg>
