<svg width="22" height="23" viewBox="0 0 22 23" fill="none" xmlns="http://www.w3.org/2000/svg">
<path fill-rule="evenodd" clip-rule="evenodd" d="M2.7206e-07 2.33898C2.7206e-07 1.85151 0.193646 1.38401 0.538338 1.03932C0.88303 0.694625 1.35053 0.500979 1.838 0.500979H20.16C20.4016 0.500584 20.6409 0.547842 20.8641 0.640046C21.0874 0.732249 21.2903 0.867589 21.4612 1.03832C21.6322 1.20904 21.7677 1.4118 21.8602 1.63499C21.9526 1.85818 22.0001 2.0974 22 2.33898V20.661C22.0003 20.9026 21.9529 21.1419 21.8606 21.3652C21.7683 21.5885 21.6328 21.7914 21.462 21.9623C21.2912 22.1332 21.0884 22.2687 20.8651 22.3612C20.6419 22.4536 20.4026 22.5011 20.161 22.501H1.838C1.59655 22.501 1.35746 22.4534 1.1344 22.361C0.911335 22.2685 0.708671 22.1331 0.537984 21.9623C0.367297 21.7915 0.231932 21.5888 0.139623 21.3657C0.0473133 21.1425 -0.000131096 20.9034 2.7206e-07 20.662V2.33898ZM8.708 8.88898H11.687V10.385C12.117 9.52498 13.217 8.75098 14.87 8.75098C18.039 8.75098 18.79 10.464 18.79 13.607V19.429H15.583V14.323C15.583 12.533 15.153 11.523 14.061 11.523C12.546 11.523 11.916 12.612 11.916 14.323V19.429H8.708V8.88898ZM3.208 19.292H6.416V8.75098H3.208V19.291V19.292ZM6.875 5.31298C6.88105 5.58765 6.83217 5.86077 6.73124 6.11629C6.63031 6.37182 6.47935 6.60461 6.28723 6.80101C6.09511 6.99741 5.8657 7.15345 5.61245 7.25998C5.35921 7.36652 5.08724 7.4214 4.8125 7.4214C4.53776 7.4214 4.26579 7.36652 4.01255 7.25998C3.7593 7.15345 3.52989 6.99741 3.33777 6.80101C3.14565 6.60461 2.99469 6.37182 2.89376 6.11629C2.79283 5.86077 2.74395 5.58765 2.75 5.31298C2.76187 4.77383 2.98439 4.26077 3.36989 3.88366C3.75539 3.50656 4.27322 3.2954 4.8125 3.2954C5.35178 3.2954 5.86961 3.50656 6.25511 3.88366C6.64061 4.26077 6.86313 4.77383 6.875 5.31298Z" fill="#B5B5B5"/>
</svg>
