<svg width="54" height="55" viewBox="0 0 54 55" fill="none" xmlns="http://www.w3.org/2000/svg">
<path d="M27 5.36963C18.2925 5.36963 11.25 12.4121 11.25 21.1196C11.25 32.9321 27 50.3696 27 50.3696C27 50.3696 42.75 32.9321 42.75 21.1196C42.75 12.4121 35.7075 5.36963 27 5.36963ZM27 26.7446C25.5082 26.7446 24.0774 26.152 23.0225 25.0971C21.9676 24.0422 21.375 22.6115 21.375 21.1196C21.375 19.6278 21.9676 18.197 23.0225 17.1422C24.0774 16.0873 25.5082 15.4946 27 15.4946C28.4918 15.4946 29.9226 16.0873 30.9775 17.1422C32.0324 18.197 32.625 19.6278 32.625 21.1196C32.625 22.6115 32.0324 24.0422 30.9775 25.0971C29.9226 26.152 28.4918 26.7446 27 26.7446Z" fill="#D9E7E8"/>
</svg>
