<svg width="59" height="56" viewBox="0 0 59 56" fill="none" xmlns="http://www.w3.org/2000/svg">
<path d="M20.25 4.75C22.166 4.75 24.039 5.31816 25.6321 6.38264C27.2252 7.44711 28.4669 8.96009 29.2001 10.7303C29.9333 12.5004 30.1252 14.4482 29.7514 16.3274C29.3776 18.2066 28.4549 19.9328 27.1001 21.2876C25.7453 22.6424 24.0191 23.5651 22.1399 23.9389C20.2607 24.3127 18.3129 24.1208 16.5428 23.3876C14.7726 22.6544 13.2596 21.4127 12.1951 19.8196C11.1307 18.2265 10.5625 16.3535 10.5625 14.4375C10.5625 11.8682 11.5831 9.40416 13.3999 7.5874C15.2167 5.77064 17.6807 4.75 20.25 4.75ZM20.25 0.875C17.5676 0.875 14.9454 1.67043 12.7151 3.16069C10.4847 4.65096 8.7464 6.76913 7.71988 9.24736C6.69337 11.7256 6.42479 14.4525 6.9481 17.0834C7.47141 19.7143 8.76311 22.1309 10.6599 24.0276C12.5566 25.9244 14.9732 27.2161 17.6041 27.7394C20.235 28.2627 22.9619 27.9941 25.4401 26.9676C27.9184 25.9411 30.0365 24.2028 31.5268 21.9724C33.0171 19.7421 33.8125 17.1199 33.8125 14.4375C33.8125 10.8405 32.3836 7.39083 29.8401 4.84736C27.2967 2.3039 23.847 0.875 20.25 0.875ZM39.625 55.125H35.75V45.4375C35.75 42.8682 34.7294 40.4042 32.9126 38.5874C31.0958 36.7706 28.6318 35.75 26.0625 35.75H14.4375C11.8682 35.75 9.40416 36.7706 7.5874 38.5874C5.77064 40.4042 4.75 42.8682 4.75 45.4375V55.125H0.875V45.4375C0.875 41.8405 2.3039 38.3908 4.84736 35.8474C7.39083 33.3039 10.8405 31.875 14.4375 31.875H26.0625C29.6595 31.875 33.1092 33.3039 35.6526 35.8474C38.1961 38.3908 39.625 41.8405 39.625 45.4375V55.125ZM45.4375 28.3488L40.4194 23.3306L37.6875 26.0625L45.4375 33.8125L59 20.25L56.2681 17.5181L45.4375 28.3488Z" fill="#CCCCCC"/>
</svg>
