<svg width="22" height="23" viewBox="0 0 22 23" fill="none" xmlns="http://www.w3.org/2000/svg">
<path d="M11 0.501221C8.01488 0.501221 7.6395 0.514971 6.46663 0.567221C5.29375 0.622221 4.49487 0.806471 3.795 1.07872C3.06088 1.35485 2.39593 1.78798 1.84663 2.34785C1.2871 2.89743 0.854023 3.5623 0.5775 4.29622C0.30525 4.99472 0.119625 5.79497 0.066 6.96372C0.01375 8.13935 0 8.51335 0 11.5026C0 14.4891 0.01375 14.8631 0.066 16.036C0.121 17.2075 0.30525 18.0063 0.5775 18.7062C0.859375 19.4295 1.23475 20.0427 1.84663 20.6546C2.45713 21.2665 3.07037 21.6432 3.79363 21.9237C4.49487 22.196 5.29238 22.3816 6.46388 22.4352C7.63813 22.4875 8.01213 22.5012 11 22.5012C13.9879 22.5012 14.3605 22.4875 15.5347 22.4352C16.7049 22.3802 17.5065 22.196 18.2064 21.9237C18.94 21.6475 19.6045 21.2143 20.1534 20.6546C20.7652 20.0427 21.1406 19.4295 21.4225 18.7062C21.6934 18.0063 21.879 17.2075 21.934 16.036C21.9862 14.8631 22 14.4891 22 11.5012C22 8.51335 21.9862 8.13935 21.934 6.9651C21.879 5.79497 21.6934 4.99472 21.4225 4.29622C21.146 3.56228 20.7129 2.8974 20.1534 2.34785C19.6042 1.78777 18.9392 1.35461 18.205 1.07872C17.5037 0.806471 16.7035 0.620846 15.5334 0.567221C14.3591 0.514971 13.9865 0.501221 10.9973 0.501221H11.0014H11ZM10.0141 2.48397H11.0014C13.9384 2.48397 14.2863 2.4936 15.4454 2.54722C16.5179 2.59535 17.1009 2.77547 17.4886 2.92535C18.0015 3.12472 18.3686 3.36397 18.7536 3.74897C19.1386 4.13397 19.3765 4.49972 19.5759 5.01397C19.7271 5.40035 19.9059 5.98335 19.954 7.05585C20.0076 8.21497 20.0186 8.56285 20.0186 11.4985C20.0186 14.4341 20.0076 14.7833 19.954 15.9425C19.9059 17.015 19.7257 17.5966 19.5759 17.9843C19.3995 18.462 19.118 18.8938 18.7522 19.248C18.3672 19.633 18.0015 19.8708 17.4873 20.0702C17.1023 20.2215 16.5192 20.4002 15.4454 20.4497C14.2863 20.502 13.9384 20.5143 11.0014 20.5143C8.06438 20.5143 7.71513 20.502 6.556 20.4497C5.4835 20.4002 4.90188 20.2215 4.51412 20.0702C4.03631 19.8941 3.60405 19.6131 3.24913 19.248C2.88303 18.8933 2.60112 18.461 2.42412 17.983C2.27425 17.5966 2.09413 17.0136 2.046 15.9411C1.99375 14.782 1.98275 14.4341 1.98275 11.4957C1.98275 8.55872 1.99375 8.21222 2.046 7.0531C2.0955 5.9806 2.27425 5.3976 2.4255 5.00985C2.62488 4.49697 2.86412 4.12985 3.24913 3.74485C3.63412 3.35985 3.99988 3.12197 4.51412 2.9226C4.90188 2.77135 5.4835 2.5926 6.556 2.5431C7.57075 2.49635 7.964 2.4826 10.0141 2.48122V2.48397ZM16.8726 4.30997C16.6993 4.30997 16.5276 4.34411 16.3675 4.41045C16.2073 4.47679 16.0618 4.57402 15.9392 4.69659C15.8167 4.81916 15.7194 4.96468 15.6531 5.12483C15.5868 5.28498 15.5526 5.45663 15.5526 5.62997C15.5526 5.80332 15.5868 5.97496 15.6531 6.13511C15.7194 6.29526 15.8167 6.44078 15.9392 6.56335C16.0618 6.68593 16.2073 6.78316 16.3675 6.84949C16.5276 6.91583 16.6993 6.94997 16.8726 6.94997C17.2227 6.94997 17.5585 6.8109 17.806 6.56335C18.0536 6.3158 18.1926 5.98006 18.1926 5.62997C18.1926 5.27988 18.0536 4.94414 17.806 4.69659C17.5585 4.44904 17.2227 4.30997 16.8726 4.30997ZM11.0014 5.85272C10.2521 5.84103 9.50798 5.97851 8.81234 6.25716C8.11671 6.53582 7.48346 6.95007 6.94946 7.4758C6.41546 8.00154 5.99138 8.62825 5.70191 9.31945C5.41244 10.0107 5.26336 10.7525 5.26336 11.5019C5.26336 12.2513 5.41244 12.9932 5.70191 13.6844C5.99138 14.3756 6.41546 15.0023 6.94946 15.528C7.48346 16.0537 8.11671 16.468 8.81234 16.7467C9.50798 17.0253 10.2521 17.1628 11.0014 17.1511C12.4844 17.128 13.8988 16.5226 14.9393 15.4657C15.9799 14.4088 16.5631 12.9851 16.5631 11.5019C16.5631 10.0187 15.9799 8.59504 14.9393 7.53813C13.8988 6.48122 12.4844 5.87586 11.0014 5.85272ZM11.0014 7.8341C11.974 7.8341 12.9067 8.22045 13.5944 8.90817C14.2821 9.59589 14.6685 10.5286 14.6685 11.5012C14.6685 12.4738 14.2821 13.4066 13.5944 14.0943C12.9067 14.782 11.974 15.1683 11.0014 15.1683C10.0288 15.1683 9.09605 14.782 8.40833 14.0943C7.72061 13.4066 7.33425 12.4738 7.33425 11.5012C7.33425 10.5286 7.72061 9.59589 8.40833 8.90817C9.09605 8.22045 10.0288 7.8341 11.0014 7.8341Z" fill="#B5B5B5"/>
</svg>
