<svg width="64" height="52" viewBox="0 0 64 52" fill="none" xmlns="http://www.w3.org/2000/svg">
<path d="M8 2C8 1.46957 8.21071 0.96086 8.58579 0.585787C8.96086 0.210714 9.46957 0 10 0H62C62.5304 0 63.0391 0.210714 63.4142 0.585787C63.7893 0.96086 64 1.46957 64 2C64 2.53043 63.7893 3.03914 63.4142 3.41421C63.0391 3.78929 62.5304 4 62 4H10C9.46957 4 8.96086 3.78929 8.58579 3.41421C8.21071 3.03914 8 2.53043 8 2ZM8 50C8 49.4696 8.21071 48.9609 8.58579 48.5858C8.96086 48.2107 9.46957 48 10 48H62C62.5304 48 63.0391 48.2107 63.4142 48.5858C63.7893 48.9609 64 49.4696 64 50C64 50.5304 63.7893 51.0391 63.4142 51.4142C63.0391 51.7893 62.5304 52 62 52H10C9.46957 52 8.96086 51.7893 8.58579 51.4142C8.21071 51.0391 8 50.5304 8 50ZM32 34C32 33.4696 32.2107 32.9609 32.5858 32.5858C32.9609 32.2107 33.4696 32 34 32H62C62.5304 32 63.0391 32.2107 63.4142 32.5858C63.7893 32.9609 64 33.4696 64 34C64 34.5304 63.7893 35.0391 63.4142 35.4142C63.0391 35.7893 62.5304 36 62 36H34C33.4696 36 32.9609 35.7893 32.5858 35.4142C32.2107 35.0391 32 34.5304 32 34ZM32 18C32 17.4696 32.2107 16.9609 32.5858 16.5858C32.9609 16.2107 33.4696 16 34 16H62C62.5304 16 63.0391 16.2107 63.4142 16.5858C63.7893 16.9609 64 17.4696 64 18C64 18.5304 63.7893 19.0391 63.4142 19.4142C63.0391 19.7893 62.5304 20 62 20H34C33.4696 20 32.9609 19.7893 32.5858 19.4142C32.2107 19.0391 32 18.5304 32 18ZM14 40C10.287 40 6.72601 38.525 4.1005 35.8995C1.475 33.274 0 29.713 0 26C0 22.287 1.475 18.726 4.1005 16.1005C6.72601 13.475 10.287 12 14 12C17.713 12 21.274 13.475 23.8995 16.1005C26.525 18.726 28 22.287 28 26C28 29.713 26.525 33.274 23.8995 35.8995C21.274 38.525 17.713 40 14 40ZM16 18C16 17.4696 15.7893 16.9609 15.4142 16.5858C15.0391 16.2107 14.5304 16 14 16C13.4696 16 12.9609 16.2107 12.5858 16.5858C12.2107 16.9609 12 17.4696 12 18V24H6C5.46957 24 4.96086 24.2107 4.58579 24.5858C4.21071 24.9609 4 25.4696 4 26C4 26.5304 4.21071 27.0391 4.58579 27.4142C4.96086 27.7893 5.46957 28 6 28H12V34C12 34.5304 12.2107 35.0391 12.5858 35.4142C12.9609 35.7893 13.4696 36 14 36C14.5304 36 15.0391 35.7893 15.4142 35.4142C15.7893 35.0391 16 34.5304 16 34V28H22C22.5304 28 23.0391 27.7893 23.4142 27.4142C23.7893 27.0391 24 26.5304 24 26C24 25.4696 23.7893 24.9609 23.4142 24.5858C23.0391 24.2107 22.5304 24 22 24H16V18Z" fill="#CCCCCC"/>
</svg>
