<svg width="22" height="23" viewBox="0 0 22 23" fill="none" xmlns="http://www.w3.org/2000/svg">
<path fill-rule="evenodd" clip-rule="evenodd" d="M11 0.772461C4.9225 0.772461 0 5.69496 0 11.7725C0 16.64 3.14875 20.7512 7.52125 22.2087C8.07125 22.305 8.2775 21.975 8.2775 21.6862C8.2775 21.425 8.26375 20.5587 8.26375 19.6375C5.5 20.1462 4.785 18.9637 4.565 18.345C4.44125 18.0287 3.905 17.0525 3.4375 16.7912C3.0525 16.585 2.5025 16.0762 3.42375 16.0625C4.29 16.0487 4.90875 16.86 5.115 17.19C6.105 18.8537 7.68625 18.3862 8.31875 18.0975C8.415 17.3825 8.70375 16.9012 9.02 16.6262C6.5725 16.3512 4.015 15.4025 4.015 11.195C4.015 9.99871 4.44125 9.00871 5.1425 8.23871C5.0325 7.96371 4.6475 6.83621 5.2525 5.32371C5.2525 5.32371 6.17375 5.03496 8.2775 6.45121C9.1575 6.20371 10.0925 6.07996 11.0275 6.07996C11.9625 6.07996 12.8975 6.20371 13.7775 6.45121C15.8813 5.02121 16.8025 5.32371 16.8025 5.32371C17.4075 6.83621 17.0225 7.96371 16.9125 8.23871C17.6138 9.00871 18.04 9.98496 18.04 11.195C18.04 15.4162 15.4688 16.3512 13.0212 16.6262C13.42 16.97 13.7638 17.63 13.7638 18.6612C13.7638 20.1325 13.75 21.315 13.75 21.6862C13.75 21.975 13.9563 22.3187 14.5063 22.2087C16.6899 21.4715 18.5874 20.068 19.9317 18.1959C21.276 16.3238 21.9993 14.0772 22 11.7725C22 5.69496 17.0775 0.772461 11 0.772461Z" fill="#B5B5B5"/>
</svg>
