<svg width="64" height="64" viewBox="0 0 64 64" fill="none" xmlns="http://www.w3.org/2000/svg">
<path d="M17.4222 33.4222H46.5778V38.8978H49.4222V30.5778H33.4222V24.8889H30.5778V30.5778H14.5778V38.8978H17.4222V33.4222Z" fill="#CCCCCC"/>
<path d="M24.8889 40.8889H7.11111C6.16812 40.8889 5.26375 41.2635 4.59695 41.9303C3.93016 42.5971 3.55556 43.5014 3.55556 44.4444V55.1111C3.55556 56.0541 3.93016 56.9585 4.59695 57.6253C5.26375 58.2921 6.16812 58.6667 7.11111 58.6667H24.8889C25.8319 58.6667 26.7362 58.2921 27.403 57.6253C28.0698 56.9585 28.4444 56.0541 28.4444 55.1111V44.4444C28.4444 43.5014 28.0698 42.5971 27.403 41.9303C26.7362 41.2635 25.8319 40.8889 24.8889 40.8889ZM7.11111 55.1111V44.4444H24.8889V55.1111H7.11111Z" fill="#CCCCCC"/>
<path d="M56.8889 40.8889H39.1111C38.1681 40.8889 37.2638 41.2635 36.597 41.9303C35.9302 42.5971 35.5556 43.5014 35.5556 44.4444V55.1111C35.5556 56.0541 35.9302 56.9585 36.597 57.6253C37.2638 58.2921 38.1681 58.6667 39.1111 58.6667H56.8889C57.8319 58.6667 58.7363 58.2921 59.403 57.6253C60.0698 56.9585 60.4444 56.0541 60.4444 55.1111V44.4444C60.4444 43.5014 60.0698 42.5971 59.403 41.9303C58.7363 41.2635 57.8319 40.8889 56.8889 40.8889ZM39.1111 55.1111V44.4444H56.8889V55.1111H39.1111Z" fill="#CCCCCC"/>
<path d="M23.1111 23.1111H40.8889C41.8319 23.1111 42.7362 22.7365 43.403 22.0697C44.0698 21.4029 44.4444 20.4986 44.4444 19.5556V8.8889C44.4444 7.94591 44.0698 7.04154 43.403 6.37474C42.7362 5.70795 41.8319 5.33334 40.8889 5.33334H23.1111C22.1681 5.33334 21.2638 5.70795 20.597 6.37474C19.9302 7.04154 19.5556 7.94591 19.5556 8.8889V19.5556C19.5556 20.4986 19.9302 21.4029 20.597 22.0697C21.2638 22.7365 22.1681 23.1111 23.1111 23.1111ZM23.1111 8.8889H40.8889V19.5556H23.1111V8.8889Z" fill="#CCCCCC"/>
</svg>
